<svg width="1920" height="237" viewBox="0 0 1920 237" fill="none" xmlns="http://www.w3.org/2000/svg">
<path d="M1.5 162.246H936.941C936.976 162.246 937.006 162.223 937.016 162.189V162.189C940.806 148.515 959.514 146.83 965.688 159.606L966.963 162.246H976.699L981.36 172.826L984.644 150.206L995.689 59.3611L1009.72 160.786L1016 207L1022.41 162.246L1023.9 159.146C1028.58 149.424 1043.01 151.579 1044.65 162.246V162.246L1047.34 172.826L1064.05 70.3062L1077.85 162.246L1082.86 193.622L1087.94 162.246V162.246C1092.32 150.447 1108.7 149.654 1114.2 160.975L1114.82 162.246L1118.69 179.758L1136.3 44.0378L1151.82 198L1156.3 162.246V162.246C1159.77 150.013 1177.3 150.607 1179.93 163.046L1182 172.826L1192.42 59.3611L1205 236L1212.13 162.246V162.246C1215.75 154.033 1227.84 155.566 1229.3 164.423L1231.83 179.758L1245.56 5L1261.39 198L1271.54 160.786H1278L1279 158" stroke="#F61D1D" stroke-width="3"/>
<path d="M1279.5 161.5L1280.79 158.67C1288 142.839 1310.39 142.583 1317.96 158.246V158.246H1327.7L1332.36 168.826L1335.64 146.206L1346.69 55.3611L1360.72 156.786L1367 194L1373.41 158.246L1374.9 155.146C1379.58 145.424 1394.01 147.579 1395.65 158.246V158.246L1398.34 168.826L1415.05 66.3062L1428.85 158.246L1434 175.758L1438.94 158.246V158.246C1443.32 146.447 1459.7 145.654 1465.2 156.975L1465.82 158.246L1469.69 175.758L1487.3 40.0378L1501 210.5L1507.3 158.246V158.246C1510.74 146.101 1528.16 146.728 1530.72 159.09L1534.17 175.758L1543.42 55.3611L1557 226.5L1563.13 158.246V158.246C1566.75 150.033 1578.84 151.566 1580.3 160.423L1582.83 175.758L1596.56 1L1612.39 194L1622.54 156.786H1942" stroke="#F61D1D" stroke-width="3.1"/>
<line x1="-104.019" y1="162.5" x2="361.019" y2="162.5" stroke="#F61D1D" stroke-width="3"/>
</svg>
